# xmcd CD database file
#
# Track frame offsets:
#	150
#	13472
#	28727
#	46560
#	56955
#	68912
#	85690
#	103030
#	119397
#	137105
#	152062
#	165907
#	182710
#	197900
#
# Disc length: 2864 seconds
#
# Revision: 0
# Processed by: cddbd v1.5.1PL0 Copyright (c) Steve Scherf et al.
# Submitted via: CDex 1.51
#
DISCID=bd0b2e0e
DTITLE=Cosmic Ballroom - Rock'n Roll Overdose
DYEAR=1900
DGENRE=ロック (一般)
TTITLE0=Faster Than Me
TTITLE1=Get Away
TTITLE2=Killing Me
TTITLE3=She Gets Off Like This
TTITLE4=T.D,O.S
TTITLE5=Kings and Queens
TTITLE6=Molotov Mind
TTITLE7=You're The Man
TTITLE8=Give Away Nothing
TTITLE9=Loser
TTITLE10=Not Again
TTITLE11=Crash and Burn
TTITLE12=Something
TTITLE13=Shit Outta Lick
EXTD=
EXTT0=
EXTT1=
EXTT2=
EXTT3=
EXTT4=
EXTT5=
EXTT6=
EXTT7=
EXTT8=
EXTT9=
EXTT10=
EXTT11=
EXTT12=
EXTT13=
PLAYORDER=
